<?xml version="1.0" standalone="no"?>
<!DOCTYPE svg PUBLIC "-//W3C//DTD SVG 20010904//EN"
 "http://www.w3.org/TR/2001/REC-SVG-20010904/DTD/svg10.dtd">
<svg version="1.0" xmlns="http://www.w3.org/2000/svg"
 width="1024.000000pt" height="1024.000000pt" viewBox="0 0 1024.000000 1024.000000"
 preserveAspectRatio="xMidYMid meet">
<metadata>
Created by potrace 1.14, written by Peter Selinger 2001-2017
</metadata>
<g transform="translate(0.000000,1024.000000) scale(0.100000,-0.100000)"
fill="#000000" stroke="none">
<path d="M0 5120 l0 -5120 5120 0 5120 0 0 5120 0 5120 -5120 0 -5120 0 0
-5120z m7992 2228 c17 -884 24 -1413 18 -1421 -12 -14 -184 101 -271 182 -125
115 -213 236 -244 333 -51 161 -42 334 30 547 42 125 89 215 243 464 66 105
137 227 158 269 25 50 42 74 48 68 6 -6 13 -188 18 -442z m-152 394 c0 -5 -9
-17 -20 -27 -11 -10 -59 -72 -107 -139 -107 -149 -171 -217 -270 -288 -163
-117 -325 -183 -983 -403 -234 -78 -488 -166 -565 -197 -77 -30 -207 -81 -290
-113 -210 -81 -378 -168 -439 -228 l-49 -49 -32 35 c-18 19 -50 46 -71 59 -46
29 -449 205 -579 253 -49 18 -160 59 -245 90 -85 32 -274 98 -420 147 -590
200 -731 267 -946 449 -124 105 -354 365 -354 399 0 25 973 -9 1206 -41 100
-14 353 -78 465 -119 112 -40 351 -157 431 -211 138 -92 316 -260 394 -371
106 -149 154 -288 154 -445 0 -51 4 -93 8 -93 4 0 19 69 31 152 26 170 48 223
165 399 156 238 490 471 841 587 250 82 503 117 970 133 257 8 546 20 678 27
15 1 27 -2 27 -6z m-5426 -84 c150 -232 305 -501 335 -584 69 -189 91 -344 73
-495 -18 -144 -70 -250 -186 -376 -93 -102 -304 -239 -329 -214 -6 6 -9 59 -8
133 1 68 6 452 11 853 6 402 13 738 16 748 11 34 35 16 88 -65z m571 -1818
c465 -70 887 -193 1185 -345 61 -32 109 -59 107 -61 -2 -2 -55 20 -118 50
-133 63 -185 80 -192 62 -3 -8 49 -40 137 -84 196 -100 211 -109 196 -127 -10
-12 -7 -17 14 -26 42 -19 31 -32 -20 -24 -26 3 -54 9 -63 11 -9 3 1 -4 23 -15
75 -40 87 -62 29 -55 l-38 4 30 -14 c29 -15 29 -15 5 -16 -24 0 -24 0 -5 -18
11 -10 40 -27 65 -38 25 -10 65 -31 89 -46 25 -16 50 -28 57 -28 6 0 17 -7 24
-15 18 -21 5 -19 -111 20 -56 19 -105 33 -107 31 -2 -2 15 -14 37 -27 23 -12
41 -26 41 -30 0 -4 24 -16 53 -27 113 -43 129 -57 85 -77 -35 -15 -28 -25 31
-46 30 -10 57 -22 60 -25 3 -4 -2 -4 -12 -1 -34 13 -204 20 -222 10 -16 -9
-16 -11 6 -27 13 -10 78 -47 145 -82 66 -36 136 -78 155 -95 l34 -29 -55 21
c-397 154 -579 218 -946 329 -511 155 -599 183 -688 217 -204 77 -332 167
-463 325 -115 138 -197 265 -191 296 9 49 305 50 623 2z m4945 13 c0 -46 -178
-291 -300 -413 -42 -41 -114 -101 -160 -132 -175 -117 -323 -173 -752 -283
-326 -85 -503 -139 -767 -237 -117 -43 -216 -77 -218 -74 -2 2 79 46 182 96
102 51 184 94 182 96 -4 4 -140 -21 -172 -31 -11 -4 1 6 26 22 144 88 193 122
185 130 -2 3 -26 -5 -51 -16 -56 -25 -72 -27 -55 -6 12 14 8 15 -31 9 l-44 -7
30 34 c17 19 48 52 70 73 l40 39 -38 -23 c-21 -12 -40 -20 -42 -18 -7 6 76 73
115 93 19 10 48 27 63 37 59 42 14 26 -119 -41 -179 -90 -191 -83 -41 23 31
22 55 41 54 42 -1 2 -19 -1 -40 -5 -45 -11 -46 -7 -4 19 l32 21 -45 -7 -45 -6
70 42 c39 23 102 58 140 77 39 20 94 51 123 70 29 18 95 51 146 72 51 21 106
46 122 55 l29 17 -30 -6 c-42 -9 -146 -51 -235 -95 -41 -20 -100 -45 -130 -55
-30 -9 -74 -28 -97 -41 -50 -29 -77 -31 -44 -4 13 11 19 20 15 20 -15 0 -313
-148 -344 -170 -17 -12 -30 -19 -30 -15 0 22 272 171 500 273 421 190 801 277
1389 317 124 9 227 18 230 20 2 3 24 5 48 5 34 0 43 -4 43 -17z m99 -1767
c-20 -267 -60 -399 -161 -534 -82 -111 -288 -243 -468 -301 -102 -33 -288 -82
-625 -166 -457 -114 -688 -185 -890 -275 -68 -30 -136 -53 -111 -37 10 7 37
26 60 44 52 40 273 154 346 179 30 10 48 20 39 21 -19 4 -172 -53 -259 -97
-34 -17 -64 -30 -66 -27 -18 17 297 170 521 252 99 37 184 71 189 76 13 12
-46 -5 -119 -36 -33 -13 -105 -40 -160 -60 -55 -19 -117 -44 -138 -56 -21 -11
-41 -19 -43 -16 -7 7 119 80 238 138 60 29 106 54 104 56 -8 9 -380 -144 -422
-174 -16 -11 -65 -39 -109 -62 l-80 -42 45 40 c25 22 77 61 117 88 39 26 70
49 68 51 -1 2 -25 -9 -53 -25 -47 -26 -72 -28 -58 -4 4 5 41 29 84 52 137 74
233 131 228 136 -2 2 -26 -4 -53 -15 -26 -11 -68 -27 -93 -35 -25 -8 -78 -29
-119 -46 -41 -17 -76 -29 -79 -26 -3 2 11 12 31 20 21 8 37 20 37 25 0 15 136
105 218 145 39 20 72 38 72 41 0 4 -17 3 -37 -1 -21 -5 -49 -9 -63 -10 -14 -2
-62 -19 -108 -40 -101 -44 -154 -46 -79 -2 26 15 47 29 47 31 0 2 -12 1 -26
-2 -35 -6 -24 11 16 28 21 9 27 15 19 21 -8 5 4 16 37 31 27 14 105 54 174 91
147 78 174 88 345 132 140 37 148 44 20 20 -159 -31 -371 -99 -465 -151 -68
-37 -171 -84 -166 -76 13 22 229 142 331 184 175 73 358 116 691 163 268 38
301 48 409 127 65 48 112 112 148 200 21 51 22 70 27 543 l5 491 41 69 c41 70
210 340 265 424 16 25 34 63 40 85 32 119 34 81 41 -740 5 -544 4 -854 -3
-948z m-5659 1503 c19 -32 80 -120 135 -195 156 -213 140 -164 138 -424 -3
-266 13 -616 32 -718 20 -103 66 -190 136 -257 87 -83 150 -108 369 -145 299
-50 514 -100 642 -151 144 -56 479 -226 494 -250 9 -15 -91 28 -216 91 -137
70 -182 88 -320 128 -165 48 -197 47 -60 -2 69 -24 143 -51 165 -61 61 -26
222 -126 263 -162 l37 -33 -67 25 c-38 14 -68 23 -68 21 0 -2 31 -24 70 -47
68 -43 88 -64 33 -36 -15 8 -44 17 -63 21 -41 8 -38 5 68 -58 35 -21 61 -40
58 -43 -3 -3 -49 16 -103 42 -116 57 -215 95 -245 95 -33 0 -13 -13 77 -49 44
-18 109 -49 145 -68 72 -40 222 -145 215 -151 -2 -2 -19 1 -36 7 l-33 11 42
-38 c23 -22 42 -43 42 -48 0 -5 15 -18 33 -29 57 -34 151 -109 140 -112 -6 -2
-38 5 -71 16 -52 18 -64 19 -86 7 l-25 -13 52 -21 c29 -12 69 -36 88 -53 l34
-30 -42 5 c-24 4 -43 2 -43 -2 0 -10 90 -95 126 -119 58 -38 5 -19 -152 55
-283 133 -464 192 -964 317 -366 92 -538 147 -687 220 -226 111 -343 278 -406
580 -44 208 -49 334 -45 1080 2 380 8 699 12 709 8 17 12 15 30 -18 12 -21 37
-64 56 -97z m1945 -177 c-3 -3 -11 0 -18 7 -9 10 -8 11 6 5 10 -3 15 -9 12
-12z m1385 -178 c-8 -8 -23 -20 -34 -25 -13 -7 -9 -1 9 15 34 29 43 33 25 10z
m430 -2189 c0 -2 -10 -9 -22 -15 -22 -11 -22 -10 -4 4 21 17 26 19 26 11z"/>
<path d="M4180 4916 c28 -17 107 -21 130 -6 11 7 -3 10 -45 10 -33 0 -71 3
-85 6 l-25 5 25 -15z"/>
<path d="M6314 5325 c-18 -13 -18 -14 4 -8 12 3 25 9 28 14 8 14 -10 11 -32
-6z"/>
<path d="M6275 5050 c-27 -16 -66 -43 -85 -60 l-35 -31 43 21 c49 24 152 88
152 95 0 12 -29 2 -75 -25z"/>
<path d="M6788 3733 c7 -3 16 -2 19 1 4 3 -2 6 -13 5 -11 0 -14 -3 -6 -6z"/>
<path d="M6878 3453 c7 -3 16 -2 19 1 4 3 -2 6 -13 5 -11 0 -14 -3 -6 -6z"/>
<path d="M6800 3440 c-20 -6 -21 -8 -5 -8 11 0 31 4 45 8 20 6 21 8 5 8 -11 0
-31 -4 -45 -8z"/>
<path d="M6738 3423 c6 -2 18 -2 25 0 6 3 1 5 -13 5 -14 0 -19 -2 -12 -5z"/>
<path d="M6480 3350 c-8 -5 -10 -10 -5 -10 6 0 17 5 25 10 8 5 11 10 5 10 -5
0 -17 -5 -25 -10z"/>
<path d="M6168 3184 c-38 -20 -36 -28 2 -9 17 9 30 18 30 20 0 7 -1 6 -32 -11z"/>
</g>
</svg>
